<mxfile host="app.diagrams.net" modified="2022-10-13T03:46:30.363Z" agent="5.0 (Windows NT 10.0; Win64; x64) AppleWebKit/537.36 (KHTML, like Gecko) Chrome/103.0.0.0 Safari/537.36" etag="pzRQuZUctMRRBzkxwyGj" version="17.4.6" type="github">
  <diagram id="Su9L9GBLkU5fHmpjonaS" name="Page-1">
    <mxGraphModel dx="2062" dy="1146" grid="1" gridSize="10" guides="1" tooltips="1" connect="1" arrows="1" fold="1" page="1" pageScale="1" pageWidth="827" pageHeight="1169" math="0" shadow="0">
      <root>
        <mxCell id="0" />
        <mxCell id="1" parent="0" />
        <mxCell id="DILQKqO1SH76Bk8c7bqB-4" value="" style="edgeStyle=orthogonalEdgeStyle;orthogonalLoop=1;jettySize=auto;html=1;" edge="1" parent="1" source="DILQKqO1SH76Bk8c7bqB-1" target="DILQKqO1SH76Bk8c7bqB-2">
          <mxGeometry relative="1" as="geometry" />
        </mxCell>
        <mxCell id="DILQKqO1SH76Bk8c7bqB-10" style="edgeStyle=orthogonalEdgeStyle;orthogonalLoop=1;jettySize=auto;html=1;" edge="1" parent="1" source="DILQKqO1SH76Bk8c7bqB-1" target="DILQKqO1SH76Bk8c7bqB-9">
          <mxGeometry relative="1" as="geometry" />
        </mxCell>
        <mxCell id="DILQKqO1SH76Bk8c7bqB-1" value="kafka 读流" style="whiteSpace=wrap;html=1;fillColor=#f8cecc;strokeColor=#b85450;gradientColor=#ea6b66;" vertex="1" parent="1">
          <mxGeometry x="264" y="241" width="120" height="60" as="geometry" />
        </mxCell>
        <mxCell id="DILQKqO1SH76Bk8c7bqB-6" style="edgeStyle=orthogonalEdgeStyle;orthogonalLoop=1;jettySize=auto;html=1;" edge="1" parent="1" source="DILQKqO1SH76Bk8c7bqB-2" target="DILQKqO1SH76Bk8c7bqB-5">
          <mxGeometry relative="1" as="geometry" />
        </mxCell>
        <mxCell id="DILQKqO1SH76Bk8c7bqB-16" style="edgeStyle=orthogonalEdgeStyle;orthogonalLoop=1;jettySize=auto;html=1;entryX=0;entryY=0.5;entryDx=0;entryDy=0;" edge="1" parent="1" source="DILQKqO1SH76Bk8c7bqB-2" target="DILQKqO1SH76Bk8c7bqB-9">
          <mxGeometry relative="1" as="geometry" />
        </mxCell>
        <mxCell id="DILQKqO1SH76Bk8c7bqB-2" value="人脸检测" style="whiteSpace=wrap;html=1;fillColor=#dae8fc;gradientColor=#7ea6e0;strokeColor=#6c8ebf;" vertex="1" parent="1">
          <mxGeometry x="264" y="371" width="120" height="60" as="geometry" />
        </mxCell>
        <mxCell id="DILQKqO1SH76Bk8c7bqB-8" style="edgeStyle=orthogonalEdgeStyle;orthogonalLoop=1;jettySize=auto;html=1;" edge="1" parent="1" source="DILQKqO1SH76Bk8c7bqB-5" target="DILQKqO1SH76Bk8c7bqB-7">
          <mxGeometry relative="1" as="geometry" />
        </mxCell>
        <mxCell id="DILQKqO1SH76Bk8c7bqB-5" value="提取特征值" style="whiteSpace=wrap;html=1;fillColor=#dae8fc;gradientColor=#7ea6e0;strokeColor=#6c8ebf;" vertex="1" parent="1">
          <mxGeometry x="264" y="501" width="120" height="60" as="geometry" />
        </mxCell>
        <mxCell id="DILQKqO1SH76Bk8c7bqB-18" style="edgeStyle=orthogonalEdgeStyle;orthogonalLoop=1;jettySize=auto;html=1;entryX=0.5;entryY=0;entryDx=0;entryDy=0;" edge="1" parent="1" source="DILQKqO1SH76Bk8c7bqB-7" target="DILQKqO1SH76Bk8c7bqB-17">
          <mxGeometry relative="1" as="geometry" />
        </mxCell>
        <mxCell id="DILQKqO1SH76Bk8c7bqB-7" value="检索匹配" style="whiteSpace=wrap;html=1;fillColor=#dae8fc;gradientColor=#7ea6e0;strokeColor=#6c8ebf;" vertex="1" parent="1">
          <mxGeometry x="264" y="621" width="120" height="60" as="geometry" />
        </mxCell>
        <mxCell id="DILQKqO1SH76Bk8c7bqB-9" value="对象存储" style="whiteSpace=wrap;html=1;fillColor=#d5e8d4;gradientColor=#97d077;strokeColor=#82b366;" vertex="1" parent="1">
          <mxGeometry x="559" y="301" width="120" height="60" as="geometry" />
        </mxCell>
        <mxCell id="DILQKqO1SH76Bk8c7bqB-11" value="开/关" style="text;html=1;strokeColor=none;fillColor=none;align=center;verticalAlign=middle;whiteSpace=wrap;" vertex="1" parent="1">
          <mxGeometry x="394" y="241" width="60" height="30" as="geometry" />
        </mxCell>
        <mxCell id="DILQKqO1SH76Bk8c7bqB-13" value="开/关" style="text;html=1;strokeColor=none;fillColor=none;align=center;verticalAlign=middle;whiteSpace=wrap;" vertex="1" parent="1">
          <mxGeometry x="394" y="371" width="60" height="30" as="geometry" />
        </mxCell>
        <mxCell id="DILQKqO1SH76Bk8c7bqB-14" value="&lt;div class=&quot;lake-content&quot;&gt;&lt;span class=&quot;ne-text&quot;&gt;&amp;nbsp;/edge/nvr/channel/时间(图片抽取的时间)/[原始图|检测图]/图片数据&lt;/span&gt;&lt;/div&gt;" style="text;html=1;strokeColor=none;fillColor=none;align=center;verticalAlign=middle;whiteSpace=wrap;fontStyle=1;" vertex="1" parent="1">
          <mxGeometry x="544" y="381" width="230" height="40" as="geometry" />
        </mxCell>
        <mxCell id="DILQKqO1SH76Bk8c7bqB-17" value="后续业务逻辑" style="whiteSpace=wrap;html=1;fillColor=#f8cecc;gradientColor=#ea6b66;strokeColor=#b85450;" vertex="1" parent="1">
          <mxGeometry x="264" y="741" width="120" height="60" as="geometry" />
        </mxCell>
        <mxCell id="DILQKqO1SH76Bk8c7bqB-20" value="/face/&lt;span style=&quot;background-color: rgb(255, 255, 255); font-family: &amp;quot;jetbrains mono&amp;quot;, monospace; font-size: 9.8pt;&quot;&gt;detection&lt;/span&gt;&lt;span style=&quot;font-family: monospace; font-size: 0px;&quot;&gt;%3CmxGraphModel%3E%3Croot%3E%3CmxCell%20id%3D%220%22%2F%3E%3CmxCell%20id%3D%221%22%20parent%3D%220%22%2F%3E%3CmxCell%20id%3D%222%22%20value%3D%22%E6%A3%80%E7%B4%A2%E5%8C%B9%E9%85%8D%22%20style%3D%22rounded%3D0%3BwhiteSpace%3Dwrap%3Bhtml%3D1%3BfillColor%3D%23dae8fc%3BstrokeColor%3D%236c8ebf%3B%22%20vertex%3D%221%22%20parent%3D%221%22%3E%3CmxGeometry%20x%3D%22170%22%20y%3D%22585%22%20width%3D%22120%22%20height%3D%2260%22%20as%3D%22geometry%22%2F%3E%3C%2FmxCell%3E%3C%2Froot%3E%3C%2FmxGraphModel%3E&lt;/span&gt;&lt;span style=&quot;font-family: monospace; font-size: 0px;&quot;&gt;%3CmxGraphModel%3E%3Croot%3E%3CmxCell%20id%3D%220%22%2F%3E%3CmxCell%20id%3D%221%22%20parent%3D%220%22%2F%3E%3CmxCell%20id%3D%222%22%20value%3D%22%E6%A3%80%E7%B4%A2%E5%8C%B9%E9%85%8D%22%20style%3D%22rounded%3D0%3BwhiteSpace%3Dwrap%3Bhtml%3D1%3BfillColor%3D%23dae8fc%3BstrokeColor%3D%236c8ebf%3B%22%20vertex%3D%221%22%20parent%3D%221%22%3E%3CmxGeometry%20x%3D%22170%22%20y%3D%22585%22%20width%3D%22120%22%20height%3D%2260%22%20as%3D%22geometry%22%2F%3E%3C%2FmxCell%3E%3C%2Froot%3E%3C%2FmxGraphModel%3E&lt;/span&gt;&lt;span style=&quot;font-family: monospace; font-size: 0px;&quot;&gt;%3CmxGraphModel%3E%3Croot%3E%3CmxCell%20id%3D%220%22%2F%3E%3CmxCell%20id%3D%221%22%20parent%3D%220%22%2F%3E%3CmxCell%20id%3D%222%22%20value%3D%22%E6%A3%80%E7%B4%A2%E5%8C%B9%E9%85%8D%22%20style%3D%22rounded%3D0%3BwhiteSpace%3Dwrap%3Bhtml%3D1%3BfillColor%3D%23dae8fc%3BstrokeColor%3D%236c8ebf%3B%22%20vertex%3D%221%22%20parent%3D%221%22%3E%3CmxGeometry%20x%3D%22170%22%20y%3D%22585%22%20width%3D%22120%22%20height%3D%2260%22%20as%3D%22geometry%22%2F%3E%3C%2FmxCell%3E%3C%2Froot%3E%3C%2FmxGraphModel%3E&lt;/span&gt;" style="text;html=1;strokeColor=none;fillColor=none;align=center;verticalAlign=middle;whiteSpace=wrap;fontStyle=1;" vertex="1" parent="1">
          <mxGeometry x="99" y="381" width="120" height="30" as="geometry" />
        </mxCell>
        <mxCell id="DILQKqO1SH76Bk8c7bqB-21" value="/face/&lt;span style=&quot;background-color: rgb(255 , 255 , 255) ; font-family: &amp;#34;jetbrains mono&amp;#34; , monospace ; font-size: 9.8pt&quot;&gt;feature&lt;/span&gt;&lt;span style=&quot;font-family: monospace ; font-size: 0px&quot;&gt;%3CmxGraphModel%3E%3Croot%3E%3CmxCell%20id%3D%220%22%2F%3E%3CmxCell%20id%3D%221%22%20parent%3D%220%22%2F%3E%3CmxCell%20id%3D%222%22%20value%3D%22%E6%A3%80%E7%B4%A2%E5%8C%B9%E9%85%8D%22%20style%3D%22rounded%3D0%3BwhiteSpace%3Dwrap%3Bhtml%3D1%3BfillColor%3D%23dae8fc%3BstrokeColor%3D%236c8ebf%3B%22%20vertex%3D%221%22%20parent%3D%221%22%3E%3CmxGeometry%20x%3D%22170%22%20y%3D%22585%22%20width%3D%22120%22%20height%3D%2260%22%20as%3D%22geometry%22%2F%3E%3C%2FmxCell%3E%3C%2Froot%3E%3C%2FmxGraphModel%3E&lt;/span&gt;&lt;span style=&quot;font-family: monospace ; font-size: 0px&quot;&gt;%3CmxGraphModel%3E%3Croot%3E%3CmxCell%20id%3D%220%22%2F%3E%3CmxCell%20id%3D%221%22%20parent%3D%220%22%2F%3E%3CmxCell%20id%3D%222%22%20value%3D%22%E6%A3%80%E7%B4%A2%E5%8C%B9%E9%85%8D%22%20style%3D%22rounded%3D0%3BwhiteSpace%3Dwrap%3Bhtml%3D1%3BfillColor%3D%23dae8fc%3BstrokeColor%3D%236c8ebf%3B%22%20vertex%3D%221%22%20parent%3D%221%22%3E%3CmxGeometry%20x%3D%22170%22%20y%3D%22585%22%20width%3D%22120%22%20height%3D%2260%22%20as%3D%22geometry%22%2F%3E%3C%2FmxCell%3E%3C%2Froot%3E%3C%2FmxGraphModel%3E&lt;/span&gt;&lt;span style=&quot;font-family: monospace ; font-size: 0px&quot;&gt;%3CmxGraphModel%3E%3Croot%3E%3CmxCell%20id%3D%220%22%2F%3E%3CmxCell%20id%3D%221%22%20parent%3D%220%22%2F%3E%3CmxCell%20id%3D%222%22%20value%3D%22%E6%A3%80%E7%B4%A2%E5%8C%B9%E9%85%8D%22%20style%3D%22rounded%3D0%3BwhiteSpace%3Dwrap%3Bhtml%3D1%3BfillColor%3D%23dae8fc%3BstrokeColor%3D%236c8ebf%3B%22%20vertex%3D%221%22%20parent%3D%221%22%3E%3CmxGeometry%20x%3D%22170%22%20y%3D%22585%22%20width%3D%22120%22%20height%3D%2260%22%20as%3D%22geometry%22%2F%3E%3C%2FmxCell%3E%3C%2Froot%3E%3C%2FmxGraphModel&lt;/span&gt;" style="text;html=1;strokeColor=none;fillColor=none;align=center;verticalAlign=middle;whiteSpace=wrap;fontStyle=1;" vertex="1" parent="1">
          <mxGeometry x="99" y="521" width="120" height="30" as="geometry" />
        </mxCell>
        <mxCell id="DILQKqO1SH76Bk8c7bqB-22" value="/proxima/query" style="text;html=1;strokeColor=none;fillColor=none;align=center;verticalAlign=middle;whiteSpace=wrap;fontStyle=1;" vertex="1" parent="1">
          <mxGeometry x="99" y="626" width="120" height="30" as="geometry" />
        </mxCell>
        <mxCell id="DILQKqO1SH76Bk8c7bqB-23" value="&lt;h1&gt;备注&lt;/h1&gt;&lt;p&gt;&lt;b&gt;* &lt;font color=&quot;#ff0000&quot;&gt;红色&lt;/font&gt;|&lt;font color=&quot;#00cc66&quot;&gt;绿色&lt;/font&gt;部分需要自己实现&lt;/b&gt;&lt;/p&gt;&lt;p&gt;&lt;b&gt;* &lt;font color=&quot;#007fff&quot;&gt;蓝色&lt;/font&gt;部分调用 lz2m-face-engine 接口&lt;/b&gt;&lt;/p&gt;" style="text;html=1;strokeColor=none;fillColor=none;spacing=5;spacingTop=-20;whiteSpace=wrap;overflow=hidden;" vertex="1" parent="1">
          <mxGeometry x="20" y="40" width="280" height="110" as="geometry" />
        </mxCell>
        <mxCell id="DILQKqO1SH76Bk8c7bqB-24" value="图片" style="text;html=1;strokeColor=none;fillColor=none;align=center;verticalAlign=middle;whiteSpace=wrap;rounded=0;sketch=0;fontColor=#007FFF;" vertex="1" parent="1">
          <mxGeometry x="324" y="316" width="60" height="30" as="geometry" />
        </mxCell>
        <mxCell id="DILQKqO1SH76Bk8c7bqB-25" value="图片" style="text;html=1;strokeColor=none;fillColor=none;align=center;verticalAlign=middle;whiteSpace=wrap;rounded=0;sketch=0;fontColor=#3399FF;" vertex="1" parent="1">
          <mxGeometry x="324" y="446" width="60" height="30" as="geometry" />
        </mxCell>
        <mxCell id="DILQKqO1SH76Bk8c7bqB-26" value="特征数组" style="text;html=1;strokeColor=none;fillColor=none;align=center;verticalAlign=middle;whiteSpace=wrap;rounded=0;sketch=0;fontColor=#9933FF;" vertex="1" parent="1">
          <mxGeometry x="324" y="576" width="60" height="30" as="geometry" />
        </mxCell>
        <mxCell id="DILQKqO1SH76Bk8c7bqB-27" value="json" style="text;html=1;strokeColor=none;fillColor=none;align=center;verticalAlign=middle;whiteSpace=wrap;rounded=0;sketch=0;fontColor=#7F00FF;" vertex="1" parent="1">
          <mxGeometry x="324" y="696" width="60" height="30" as="geometry" />
        </mxCell>
      </root>
    </mxGraphModel>
  </diagram>
</mxfile>
